<?xml version="1.0" encoding="UTF-8" standalone="no"?>
<!-- Created with Inkscape (http://www.inkscape.org/) -->
<svg
   xmlns:svg="http://www.w3.org/2000/svg"
   xmlns="http://www.w3.org/2000/svg"
   xmlns:xlink="http://www.w3.org/1999/xlink"
   id="svg2705"
   height="48.000000"
   width="48.000000"
   y="0.0000000"
   x="0.0000000"
   version="1.0">
  <defs
     id="defs3">
    <marker
       id="Arrow2Mend"
       style="overflow:visible"
       orient="auto"
       refY="0.0000000"
       refX="0.0000000">
      <path
         id="path4389"
         style="font-size:12.000000;fill-rule:evenodd;stroke-width:0.62500000;stroke-linejoin:round"
         transform="matrix(-0.600000,0.000000,0.000000,-0.600000,3.000000,0.000000)"
         d="M 8.7185878,4.0337352 L -2.2072895,0.016013256 L 8.7185884,-4.0017078 C 6.9730900,-1.6296469 6.9831476,1.6157441 8.7185878,4.0337352 z " />
    </marker>
    <marker
       id="Arrow1Mstart"
       style="overflow:visible"
       orient="auto"
       refY="0.0000000"
       refX="0.0000000">
      <path
         id="path4397"
         style="fill-rule:evenodd;stroke:#000000;stroke-width:1.0000000pt;marker-start:none"
         transform="scale(0.400000,0.400000)"
         d="M 0.0000000,0.0000000 L 5.0000000,-5.0000000 L -12.500000,0.0000000 L 5.0000000,5.0000000 L 0.0000000,0.0000000 z " />
    </marker>
    <linearGradient
       id="linearGradient800">
      <stop
         id="stop998"
         offset="0.0000000"
         style="stop-color:#e0b6af;stop-opacity:1.0000000;" />
      <stop
         id="stop999"
         offset="1.0000000"
         style="stop-color:#9c3909;stop-opacity:1.0000000;" />
    </linearGradient>
    <linearGradient
       gradientTransform="matrix(0.430805,0.390220,-0.415785,0.459031,-137.7348,-54.09742)"
       gradientUnits="userSpaceOnUse"
       xlink:href="#linearGradient800"
       id="linearGradient2676"
       y2="188.19106"
       x2="175.23796"
       y1="186.34784"
       x1="172.17661" />
  </defs>
  <g
     id="layer1">
    <g
       id="g2678"
       transform="translate(171.3750,-81.53125)">
      <rect
         id="rect2628"
         style="fill:none;fill-rule:evenodd;stroke:none;stroke-width:0.052083399;stroke-opacity:1.0000000"
         y="91.125000"
         x="-161.56250"
         height="24.999990"
         width="25.000004" />
      <path
         id="path2677"
         style="fill:none;fill-opacity:0.75000000;fill-rule:evenodd;stroke:#009c00;stroke-width:1.0000000px;stroke-linecap:butt;stroke-linejoin:miter;stroke-opacity:1.0000000"
         d="M -159.37500,117.12500 L -157.37500,98.000000 L -155.50000,117.37500 L -154.25000,104.25000 L -153.00000,103.00000 L -151.75000,111.75000 L -151.12500,93.000000 L -150.50000,106.12500 L -149.87500,90.500000 L -148.62500,117.37500 L -146.75000,94.875000 L -145.50000,117.37500 L -141.75000,108.00000 L -140.50000,114.87500 L -139.25000,104.87500 L -138.00000,113.62500 L -136.75000,109.25000 L -136.12500,116.12500 L -134.25000,117.37500 L -133.62500,113.62500" />
      <g
         id="g2666"
         transform="translate(4.307711,-1.539665)">
        <path
           id="path2633"
           style="fill:#ffff00;fill-rule:evenodd;stroke-width:1.0000000pt;stroke-linejoin:round"
           d="M -147.40231,102.68526 L -145.74278,105.40231 L -139.20123,101.42158 L -141.10852,98.783978 L -147.40231,102.68526 z " />
        <path
           id="path2635"
           style="fill:#cacf00;fill-opacity:1.0000000;fill-rule:evenodd;stroke-width:1.0000000pt;stroke-linejoin:round"
           d="M -146.90246,103.22790 L -145.74278,105.40231 L -139.20123,101.42158 L -140.60867,99.326614 L -146.90246,103.22790 z " />
        <path
           id="path2637"
           style="fill:#777700;fill-rule:evenodd;stroke:none;stroke-width:1.0000000pt;stroke-linejoin:round;stroke-opacity:1.0000000"
           d="M -146.08855,104.56376 L -145.74278,105.40231 L -139.20123,101.42158 L -139.79481,100.66244 L -146.08855,104.56376 z " />
        <path
           id="path2639"
           style="fill:#d79a00;fill-rule:evenodd;stroke-width:1.0000000pt;stroke-linejoin:round"
           d="M -147.33461,102.66869 L -150.17518,106.28428 L -145.69673,105.36541 C -145.08713,104.24318 -145.98572,102.56568 -147.33461,102.66869 z " />
        <path
           id="path2642"
           style="fill:#b88300;fill-rule:evenodd;stroke:none;stroke-width:1.0000000pt;stroke-linejoin:round;stroke-opacity:1.0000000"
           d="M -146.31223,102.96131 L -150.17518,106.28428 L -145.69673,105.36541 C -145.22704,104.18327 -145.72543,103.43216 -146.31223,102.96131 z " />
        <path
           id="path2645"
           style="fill:#9e7100;fill-rule:evenodd;stroke-width:1.0000000pt;stroke-linejoin:round"
           d="M -145.52153,104.22794 L -150.17518,106.28428 L -145.69673,105.36541 C -145.42999,104.82811 -145.54483,104.54544 -145.52153,104.22794 z " />
        <path
           id="path2647"
           style="fill:url(#linearGradient2676);fill-rule:evenodd;stroke:none;stroke-width:1.0000000pt;stroke-opacity:1.0000000"
           d="M -141.52244,99.026314 L -139.72259,97.947310 C -138.34462,97.181715 -136.23060,99.374323 -138.29555,100.87594 L -139.87529,101.85290 C -139.39735,100.87718 -140.34589,99.156374 -141.52244,99.026314 z " />
        <path
           id="path2649"
           style="fill-rule:evenodd;stroke:none;stroke-width:1.0000000pt;stroke-opacity:1.0000000"
           d="M -150.22610,106.32653 L -149.20148,105.03849 L -148.77133,104.45471 L -149.02891,105.27394 L -148.35825,105.16561 L -148.68239,105.59903 L -148.16060,105.86798 L -150.22610,106.32653 z " />
      </g>
      <path
         id="path2667"
         style="fill:none;fill-opacity:0.75000000;fill-rule:evenodd;stroke:#000000;stroke-width:0.62500000;stroke-linecap:butt;stroke-linejoin:miter;stroke-miterlimit:4.0000000;stroke-opacity:1.0000000;marker-start:url(#Arrow1Mstart);marker-end:url(#Arrow2Mend)"
         d="M -161.15059,93.812780 C -160.93750,124.12500 -160.93750,120.50000 -160.93750,120.50000 L -132.81250,120.50000" />
      <path
         id="path5240"
         style="fill:none;fill-opacity:0.75000000;fill-rule:evenodd;stroke:#000000;stroke-width:0.25000000;stroke-linecap:butt;stroke-linejoin:miter;stroke-miterlimit:4.0000000;stroke-opacity:1.0000000"
         d="M -162.12500,113.25000 C -160.75000,113.25000 -160.75000,113.25000 -160.75000,113.25000" />
      <path
         id="path5243"
         style="fill:none;fill-opacity:0.75000000;fill-rule:evenodd;stroke:#000000;stroke-width:0.25000000;stroke-linecap:butt;stroke-linejoin:miter;stroke-miterlimit:4.0000000;stroke-opacity:1.0000000"
         d="M -162.12500,117.25000 C -160.75000,117.25000 -160.75000,117.25000 -160.75000,117.25000" />
      <path
         id="path5245"
         style="fill:none;fill-opacity:0.75000000;fill-rule:evenodd;stroke:#000000;stroke-width:0.25000000;stroke-linecap:butt;stroke-linejoin:miter;stroke-miterlimit:4.0000000;stroke-opacity:1.0000000"
         d="M -162.12500,109.25000 C -160.75000,109.25000 -160.75000,109.25000 -160.75000,109.25000" />
      <path
         id="path5247"
         style="fill:none;fill-opacity:0.75000000;fill-rule:evenodd;stroke:#000000;stroke-width:0.25000000;stroke-linecap:butt;stroke-linejoin:miter;stroke-miterlimit:4.0000000;stroke-opacity:1.0000000"
         d="M -162.12500,105.25000 C -160.75000,105.25000 -160.75000,105.25000 -160.75000,105.25000" />
      <path
         id="path5250"
         style="fill:none;fill-opacity:0.75000000;fill-rule:evenodd;stroke:#000000;stroke-width:0.25000000;stroke-linecap:butt;stroke-linejoin:miter;stroke-miterlimit:4.0000000;stroke-opacity:1.0000000"
         d="M -162.12500,101.25000 C -160.75000,101.25000 -160.75000,101.25000 -160.75000,101.25000" />
      <path
         id="path5252"
         style="fill:none;fill-opacity:0.75000000;fill-rule:evenodd;stroke:#000000;stroke-width:0.25000000;stroke-linecap:butt;stroke-linejoin:miter;stroke-miterlimit:4.0000000;stroke-opacity:1.0000000"
         d="M -162.12500,97.250000 C -160.75000,97.250000 -160.75000,97.250000 -160.75000,97.250000" />
      <g
         id="g6082"
         transform="matrix(0.000000,1.000000,-1.000000,0.000000,17.43750,220.7500)">
        <path
           id="path6070"
           style="fill:none;fill-opacity:0.75000000;fill-rule:evenodd;stroke:#000000;stroke-width:0.25000000;stroke-linecap:butt;stroke-linejoin:miter;stroke-miterlimit:4.0000000;stroke-opacity:1.0000000"
           d="M -101.18750,171.75000 C -99.812499,171.75000 -99.812499,171.75000 -99.812499,171.75000" />
        <path
           id="path6072"
           style="fill:none;fill-opacity:0.75000000;fill-rule:evenodd;stroke:#000000;stroke-width:0.25000000;stroke-linecap:butt;stroke-linejoin:miter;stroke-miterlimit:4.0000000;stroke-opacity:1.0000000"
           d="M -101.18750,175.75000 C -99.812499,175.75000 -99.812499,175.75000 -99.812499,175.75000" />
        <path
           id="path6074"
           style="fill:none;fill-opacity:0.75000000;fill-rule:evenodd;stroke:#000000;stroke-width:0.25000000;stroke-linecap:butt;stroke-linejoin:miter;stroke-miterlimit:4.0000000;stroke-opacity:1.0000000"
           d="M -101.18750,167.75000 C -99.812499,167.75000 -99.812499,167.75000 -99.812499,167.75000" />
        <path
           id="path6076"
           style="fill:none;fill-opacity:0.75000000;fill-rule:evenodd;stroke:#000000;stroke-width:0.25000000;stroke-linecap:butt;stroke-linejoin:miter;stroke-miterlimit:4.0000000;stroke-opacity:1.0000000"
           d="M -101.18750,163.75000 C -99.812499,163.75000 -99.812499,163.75000 -99.812499,163.75000" />
        <path
           id="path6078"
           style="fill:none;fill-opacity:0.75000000;fill-rule:evenodd;stroke:#000000;stroke-width:0.25000000;stroke-linecap:butt;stroke-linejoin:miter;stroke-miterlimit:4.0000000;stroke-opacity:1.0000000"
           d="M -101.18750,159.75000 C -99.812499,159.75000 -99.812499,159.75000 -99.812499,159.75000" />
        <path
           id="path6080"
           style="fill:none;fill-opacity:0.75000000;fill-rule:evenodd;stroke:#000000;stroke-width:0.25000000;stroke-linecap:butt;stroke-linejoin:miter;stroke-miterlimit:4.0000000;stroke-opacity:1.0000000"
           d="M -101.18750,155.75000 C -99.812499,155.75000 -99.812499,155.75000 -99.812499,155.75000" />
      </g>
    </g>
  </g>
</svg>
